<?xml version="1.0" encoding="UTF-8" ?>
<svg xmlns="http://www.w3.org/2000/svg">
	<symbol viewBox="0 0 16 16" id="si-glyph-bubble-message-talk">
		<title>639</title>
		<defs/>
		<g stroke="none" stroke-width="1" fill="none" fill-rule="evenodd">
			<g transform="translate(0.000000, 1.000000)" fill="#434343">
				<path d="M5.939,0 C2.666,0 0.00899999996,1.987 0.00899999996,4.438 C0.00899999996,6.674 2.224,8.52 5.101,8.825 L3.88,11.26 L8.129,8.56 C10.318,7.906 12,6.309 12,4.438 C12,1.988 9.213,0 5.939,0 Z" class="si-glyph-fill"/>
				<path d="M15.947,8.89 C15.947,7.766 14.885,6.602 13.658,6.022 C13.314,7.972 11.734,9.767 9.241,10.469 L8.054,11.111 C8.508,11.451 9.064,11.722 9.688,11.899 L13.326,13.87 L12.023,12.094 C14.24,11.869 15.947,10.523 15.947,8.89 L15.947,8.89 Z" class="si-glyph-fill"/>
			</g>
		</g>
	</symbol>
	<symbol viewBox="0 0 17 16" id="si-glyph-electron">
		<title>798</title>
		<defs/>
		<g stroke="none" stroke-width="1" fill="none" fill-rule="evenodd">
			<g transform="translate(1.000000, 0.000000)" fill="#434343">
				<ellipse cx="7.956" cy="7.964" rx="1.956" ry="1.964" class="si-glyph-fill"/>
				<path d="M11.977,15.997 C9.557,15.997 6.516,14.453 4.039,11.967 C0.177,8.09 -1.113,3.311 1.103,1.086 C1.808,0.377 2.812,0.002 4.001,0.002 C6.422,0.002 9.463,1.547 11.94,4.034 C15.801,7.91 17.09,12.689 14.876,14.914 C14.171,15.623 13.168,15.997 11.977,15.997 L11.977,15.997 Z M4.002,1.342 C3.161,1.342 2.502,1.574 2.046,2.033 C0.416,3.669 1.761,7.785 4.982,11.019 C7.217,13.263 9.898,14.658 11.977,14.658 C12.819,14.658 13.477,14.426 13.934,13.967 C15.565,12.33 14.219,8.215 10.998,4.981 C8.763,2.736 6.082,1.342 4.002,1.342 L4.002,1.342 Z" class="si-glyph-fill"/>
				<path d="M4.002,15.997 C2.813,15.997 1.809,15.623 1.104,14.914 C-1.113,12.689 0.177,7.91 4.04,4.033 C6.517,1.547 9.558,0.002 11.978,0.002 C13.169,0.002 14.171,0.377 14.878,1.086 C17.092,3.309 15.802,8.089 11.942,11.967 C9.464,14.453 6.422,15.997 4.002,15.997 L4.002,15.997 Z M11.977,1.341 C9.898,1.341 7.217,2.736 4.982,4.98 C1.761,8.215 0.417,12.331 2.046,13.967 C2.502,14.425 3.161,14.658 4.002,14.658 C6.082,14.658 8.762,13.263 10.998,11.019 C14.219,7.784 15.562,3.667 13.933,2.032 C13.476,1.574 12.818,1.341 11.977,1.341 L11.977,1.341 Z" class="si-glyph-fill"/>
			</g>
		</g>
	</symbol>
	<symbol viewBox="0 0 17 16" id="si-glyph-gear">
		<title>759</title>
		<defs/>
		<g stroke="none" stroke-width="1" fill="none" fill-rule="evenodd">
			<path d="M15.969,8.969 L15.969,7.011 L13.899,7.011 C13.747,6.104 13.392,5.266 12.88,4.546 L14.343,3.083 L12.929,1.669 L11.466,3.132 C10.746,2.619 9.909,2.265 9.001,2.111 L9.001,0.042 L7.001,0.042 L7.001,2.111 C6.093,2.264 5.256,2.619 4.536,3.132 L3.073,1.669 L1.688,3.053 L3.147,4.512 C2.622,5.24 2.256,6.088 2.101,7.011 L0.032,7.011 L0.032,8.969 L2.095,8.969 C2.243,9.893 2.601,10.744 3.121,11.476 L1.658,12.939 L3.072,14.353 L4.535,12.89 C5.255,13.403 6.092,13.757 7,13.911 L7,15.98 L9,15.98 L9,13.911 C9.922,13.755 10.771,13.391 11.499,12.865 L12.957,14.323 L14.342,12.939 L12.879,11.476 C13.398,10.745 13.757,9.893 13.905,8.969 L15.969,8.969 L15.969,8.969 Z M8.021,11.062 C6.319,11.062 4.938,9.681 4.938,7.979 C4.938,6.277 6.319,4.896 8.021,4.896 C9.723,4.896 11.104,6.277 11.104,7.979 C11.104,9.681 9.723,11.062 8.021,11.062 L8.021,11.062 Z" fill="#434343" class="si-glyph-fill"/>
		</g>
	</symbol>
	<symbol viewBox="0 0 17 16" id="si-glyph-magnifier">
		<title>1142</title>
		<defs/>
		<g stroke="none" stroke-width="1" fill="none" fill-rule="evenodd">
			<g transform="translate(1.000000, 0.000000)" fill="#434343">
				<path d="M16,5.954 C16,2.665 13.317,0 10.009,0 C6.698,0 4.016,2.665 4.016,5.954 C4.016,9.241 6.699,11.906 10.009,11.906 C13.317,11.906 16,9.241 16,5.954 L16,5.954 Z M4.934,6.019 C4.934,3.213 7.213,0.943 10.026,0.943 C12.837,0.943 15.114,3.214 15.114,6.019 C15.114,8.823 12.837,11.094 10.026,11.094 C7.213,11.094 4.934,8.822 4.934,6.019 L4.934,6.019 Z" class="si-glyph-fill"/>
				<path d="M1.822,15.964 L0,14.142 L4.037,10.104 C4.037,10.104 4.133,10.869 4.617,11.351 C5.099,11.835 5.859,11.927 5.859,11.927 L1.822,15.964 L1.822,15.964 Z" class="si-glyph-fill"/>
				<path d="M13.398,5.073 C13.398,5.645 13.838,5.429 13.838,4.634 C13.838,3.264 12.729,2.154 11.359,2.154 C10.562,2.154 10.347,2.593 10.92,2.593 C12.29,2.593 13.398,3.704 13.398,5.073 L13.398,5.073 Z" class="si-glyph-fill"/>
			</g>
		</g>
	</symbol>
	<symbol viewBox="0 0 17 16" id="si-glyph-person-2">
		<title>867</title>
		<defs/>
		<g stroke="none" stroke-width="1" fill="none" fill-rule="evenodd">
			<g transform="translate(1.000000, 1.000000)" fill="#434343">
				<path d="M11.564,9.004 C10.717,10.159 7.905,10.454 7.905,10.454 C7.905,10.454 5.029,10.17 4.182,9.028 C0.122,9.028 0,14.933 0,14.933 L15.808,14.933 C15.808,14.934 16.127,9.004 11.564,9.004 L11.564,9.004 Z" class="si-glyph-fill"/>
				<path d="M10.818,3.02 C10.818,4.689 9.515,7.877 7.91,7.877 C6.303,7.877 5,4.689 5,3.02 C5,1.353 6.303,0 7.91,0 C9.515,0.001 10.818,1.353 10.818,3.02 L10.818,3.02 Z" class="si-glyph-fill"/>
			</g>
		</g>
	</symbol>
</svg>
